<svg width="166" height="42" viewBox="0 0 166 42" fill="none" xmlns="http://www.w3.org/2000/svg">
<path fill-rule="evenodd" clip-rule="evenodd" d="M39.2364 42C39.2364 42 26.2754 40.6059 18.1091 38.8889C10.9515 37.384 9.53674e-07 34.059 9.53674e-07 34.059C9.53674e-07 34.059 10.5099 18.6238 18.2752 10.7257C25.3839 3.49559 30.1818 -7.01155e-07 30.1818 -7.01155e-07C30.1818 -7.01155e-07 27.518 3.15368 22.844 10.7257C20.0092 15.3184 16.7523 23.1701 16.7523 23.1701C16.7523 23.1701 62.7203 13.8569 91.3761 13.8363C120.525 13.8155 166 16.9474 166 16.9474L141.633 32.5034C141.633 32.5034 120.525 26.2599 91.3761 26.2808C62.7203 26.3013 18.1091 31.1112 18.1091 31.1112C18.1091 31.1112 23.4003 35.2984 27.1636 37.3334C31.6226 39.7445 39.2364 42 39.2364 42Z" fill="#F8E9E9"/>
</svg>
