<svg width="234" height="83" viewBox="0 0 234 83" fill="none" xmlns="http://www.w3.org/2000/svg">
<path d="M216.791 57.1324L233.816 54.0158L232.023 59.3919L222.167 60.2879L223.531 64.3005L231.556 63.4045L231.127 68.7806L223.063 69.2091L223.959 73.2606L232.023 71.4686L230.66 76.8447L218.155 78.1692L216.791 57.1324Z" fill="#F8E9E9"/>
<path d="M214.839 78.1692L206.112 76.4162L212.229 61.5735L199.1 77.7407L195.166 72.91V55.8858L203.035 54.1327L199.529 65.9367L209.58 53.7042L216.592 58.0674L214.839 78.1692Z" fill="#F8E9E9"/>
<path d="M177.384 54.1716L183.149 55.4961L182.721 63.0148L188.915 63.8719L189.343 55.4961L194.213 56.3532L195.109 77.1563L189.343 78.0523L188.915 68.7415L182.253 66.9885V76.7277L176.059 78.0523L177.384 54.1716Z" fill="#F8E9E9"/>
<path d="M159.009 57.1324L176.033 54.0158L174.241 59.3919L164.385 60.2879L165.749 64.3005L173.774 63.4045L173.345 68.7806L165.281 69.2091L166.177 73.2606L174.241 71.4686L172.878 76.8447L160.373 78.1692L159.009 57.1324Z" fill="#F8E9E9"/>
<path d="M157.131 53.6263L154.326 74.0009L158.572 74.9358V82.9999L153.819 82.5325L154.793 78.7536L140.106 78.2472L140.574 81.5975L135.354 82.5325V78.7536L134.419 75.4423L135.354 74.0009L137.73 70.6895L138.198 55.5352L157.131 53.6263ZM142.95 59.314L143.418 69.7545L141.509 73.5334L150.508 74.0009L151.949 58.3791L142.95 59.314Z" fill="#F8E9E9"/>
<path d="M122.566 63.8721L127.007 55.3794L132.383 54.9509L134.175 58.496H128.799L125.682 67.4561L132.383 77.7408L125.215 78.1693L122.566 70.1442L122.098 78.1693L118.514 77.7408L118.086 69.6767H117.19L114.502 78.1693L107.373 77.7408L114.502 66.9886L110.489 58.0675L105.113 61.184V55.3794L110.022 54.0549L113.606 54.4834L118.086 64.7681V54.0549H122.527L122.566 63.8721Z" fill="#F8E9E9"/>
<path d="M92.6459 54.0937L102.697 54.5222L104.878 59.7814L103.593 73.806L98.7621 78.1692L90.4253 77.7407L87.3867 73.806L86.9192 58.8854L92.6459 54.0937ZM93.0744 71.5854L97.0091 73.3385L99.1907 58.8854L92.6459 60.21L93.0744 71.5854Z" fill="#F8E9E9"/>
<path d="M63.5445 57.7167L69.6218 54.6781L73.5565 62.0799L78.3482 54.2106L86.6071 54.6781L77.0237 65.5471L86.1786 72.5204L79.2053 78.1692L73.5565 69.0143L69.6218 77.3121L60.5059 73.806L70.5178 65.9756L63.5445 57.7167Z" fill="#F8E9E9"/>
<path d="M47.9989 54.0937L58.0498 54.5222L60.2314 59.7814L58.9459 73.806L54.1152 78.1692L45.7784 77.7407L42.7397 73.806L42.2722 58.8854L47.9989 54.0937ZM48.4274 71.5854L52.3621 73.3385L54.5437 58.8854L47.9989 60.21L48.4274 71.5854Z" fill="#F8E9E9"/>
<path d="M38.0925 53.9379L42.1051 57.0935L41.6765 65.5861L36.729 68.3131L30.4569 66.5211L32.7164 75.4812L22.8213 78.1693L23.7173 54.4054L38.0925 53.9379ZM30.4569 62.002L37.625 62.8981L38.0925 59.314L35.833 57.0935L30.4569 57.9895V62.002Z" fill="#F8E9E9"/>
<path d="M9.00692 77.1955L0.553223 78.1694L2.54004 54.3666L20.9278 53.3537L21.3953 63.2878L22.9146 78.1694H15.4738L15.9413 57.3273L9.98084 56.8209L9.00692 77.1955Z" fill="#F8E9E9"/>
<path d="M224.406 6.41851L232.845 40.1759L221.612 42.3154L220.186 31.0234L211.747 29.6564L210.32 40.1759L199.088 40.8891L210.32 5.70532L224.406 6.41851ZM212.46 24.0104L219.473 24.7236L218.106 11.3514H215.253L212.46 24.0104Z" fill="#F8E9E9"/>
<path d="M191.426 5.34906L197.547 10.1631L196.894 23.1192L189.346 27.2795L179.777 24.5456L183.224 38.215L168.128 42.3158L169.495 6.06225L191.426 5.34906ZM179.777 17.6515L190.713 19.0184L191.426 13.5507L187.979 10.1631L179.777 11.53V17.6515Z" fill="#F8E9E9"/>
<path d="M136.59 10.2224L162.562 5.46783L159.828 13.6694L144.791 15.0364L146.872 21.1579L159.115 19.7909L158.461 27.9926L146.158 28.6463L147.525 34.8272L159.828 32.0934L157.748 40.295L138.67 42.3157L136.59 10.2224Z" fill="#F8E9E9"/>
<path d="M98.7482 41.3648L77.947 39.9384L75.0942 5.52728L86.5646 6.95365L87.991 36.3131L97.3218 35.5999L96.6086 6.24046L95.836 5.52728H106.593L105.88 36.3131H114.498L116.637 6.95365L128.108 6.24046L125.255 34.1735L131.02 35.5999L130.247 43.5043L123.828 44.2175L124.542 40.6516L98.7482 42.078V41.3648Z" fill="#F8E9E9"/>
<path d="M43.7351 10.2224L69.7069 5.46783L66.973 13.6694L51.9367 15.0364L54.0168 21.1579L66.2598 19.7909L65.6061 27.9926L53.3037 28.6463L54.6706 34.8272L66.973 32.0934L64.8929 40.295L45.8152 42.3157L43.7351 10.2224Z" fill="#F8E9E9"/>
<path d="M14.3825 40.6515L0 42.3156L3.38762 1.72353L34.7083 0L35.5403 16.9381L38.0959 42.3156H25.4369L26.2689 6.77525L16.1061 5.9432L14.3825 40.6515Z" fill="#F8E9E9"/>
</svg>
