<svg width="103" height="34" viewBox="0 0 103 34" fill="none" xmlns="http://www.w3.org/2000/svg">
<path d="M99.0892 2.83414L102.816 17.7401L97.8558 18.6849L97.2259 13.6987L93.4994 13.0951L92.8696 17.7401L87.9097 18.0551L92.8696 2.51923L99.0892 2.83414ZM93.8143 10.6021L96.911 10.917L96.3074 5.01231H95.0478L93.8143 10.6021Z" fill="#F8E9E9"/>
<path d="M84.5265 2.36194L87.2295 4.48762L86.9409 10.2086L83.608 12.0456L79.3829 10.8384L80.905 16.8743L74.2393 18.6851L74.8428 2.67685L84.5265 2.36194ZM79.3829 7.79423L84.2116 8.39782L84.5265 5.98347L83.0044 4.48762L79.3829 5.09121V7.79423Z" fill="#F8E9E9"/>
<path d="M60.313 4.51381L71.7812 2.41437L70.574 6.0359L63.9345 6.63949L64.853 9.34251L70.2591 8.73892L69.9704 12.3605L64.5381 12.6491L65.1417 15.3784L70.574 14.1712L69.6555 17.7928L61.2315 18.685L60.313 4.51381Z" fill="#F8E9E9"/>
<path d="M43.6034 18.2651L34.4184 17.6353L33.1587 2.44061L38.2236 3.07044L38.8534 16.0345L42.9736 15.7196L42.6586 2.75553L42.3175 2.44061H47.0675L46.7526 16.0345H50.5578L51.5025 3.07044L56.5674 2.75553L55.3078 15.0897L57.8533 15.7196L57.5122 19.2099L54.6779 19.5248L54.9928 17.9502L43.6034 18.58V18.2651Z" fill="#F8E9E9"/>
<path d="M19.3118 4.51381L30.7799 2.41437L29.5728 6.0359L22.9333 6.63949L23.8518 9.34251L29.2579 8.73892L28.9692 12.3605L23.5369 12.6491L24.1405 15.3784L29.5728 14.1712L28.6543 17.7928L20.2303 18.685L19.3118 4.51381Z" fill="#F8E9E9"/>
<path d="M6.3508 17.9502L0 18.685L1.49585 0.761046L15.3259 0L15.6933 7.47925L16.8217 18.685H11.232L11.5994 2.9917L7.11184 2.6243L6.3508 17.9502Z" fill="#F8E9E9"/>
<path d="M98.8281 21.6439L100.868 23.2481L100.65 27.5656L98.1349 28.9519L94.9463 28.0409L96.095 32.5961L91.0645 33.9626L91.52 21.8815L98.8281 21.6439ZM94.9463 25.7435L98.5904 26.199L98.8281 24.377L97.6794 23.2481L94.9463 23.7036V25.7435Z" fill="#F8E9E9"/>
<path d="M84.6867 21.7231L89.7965 21.9409L90.9056 24.6146L90.252 31.7445L87.7962 33.9626L83.5579 33.7448L82.0131 31.7445L81.7754 24.1591L84.6867 21.7231ZM84.9046 30.6156L86.9049 31.5068L88.014 24.1591L84.6867 24.8325L84.9046 30.6156Z" fill="#F8E9E9"/>
<path d="M70.0291 22.0994L81.0011 21.6439L81.6745 25.4464L76.5251 23.4263L77.654 32.6159L72.0492 33.9626L74.0693 24.3374L70.4846 25.6841L70.0291 22.0994Z" fill="#F8E9E9"/>
<path d="M62.697 33.0516L59.2708 30.9919L63.3704 28.0211L61.7662 28.2588L60.1818 26.4367L60.3996 23.2283L62.2217 21.6439L69.7675 21.8617L69.9853 33.9626L65.1925 32.5961L66.1035 28.2588L62.697 33.0516ZM63.8259 23.4659L62.697 24.1393V26.199L66.3412 25.9812V23.9214L63.8259 23.4659Z" fill="#F8E9E9"/>
<path d="M45.1846 31.7247L45.6797 29.0114L48.9079 29.5065L47.9177 31.2296H49.8982L50.631 27.526L49.4031 22.0796L58.553 21.5845L58.8105 26.5358L59.3056 33.9627H55.8397L56.0774 23.565L53.1066 23.3075L53.3641 27.7637L51.6212 33.7052H46.4323L45.1846 31.7247Z" fill="#F8E9E9"/>
<path d="M39.0079 22.0399L41.3449 26.5159L43.6819 21.8221L46.6527 23.7432L43.0482 28.0013V33.9626L39.4238 33.111L40.2755 28.2191L36.6511 24.3769L39.0079 22.0399Z" fill="#F8E9E9"/>
<path d="M26.6617 21.9409L29.7513 26.6941L32.0289 21.3071L36.1681 23.5847L36.584 33.309L32.4448 33.923L33.2766 24.0006L29.3354 30.6155L25.414 24.4165L27.0776 33.923L23.3542 33.5071L22.7205 23.5847L26.6617 21.9409Z" fill="#F8E9E9"/>
<path d="M21.7467 33.9626L17.3104 33.0714L20.4198 25.5257L13.7454 33.7448L11.7451 31.2889V22.6341L15.7458 21.7429L13.9633 27.7438L19.073 21.525L22.6379 23.7432L21.7467 33.9626Z" fill="#F8E9E9"/>
<path d="M11.8237 23.4857L8.59542 25.6445L6.99121 23.2282H5.38699L3.76297 26.7139L5.38699 30.1996H8.06068L7.80322 28.0607H11.8237L10.2194 32.6159L2.6935 33.9626L0 26.7139L2.41622 20.5347L8.59542 20L11.8237 23.4857Z" fill="#F8E9E9"/>
</svg>
